<svg width="75" height="32" viewBox="0 0 75 32" fill="none" xmlns="http://www.w3.org/2000/svg">
<path d="M74.7066 0.0504226L56.6586 16.4942L61.0299 6.94863C61.104 6.78222 60.9261 6.61582 60.778 6.70659L51.7391 11.9256L42.9819 3.78695C39.9591 0.973206 35.4693 0.534508 31.9871 2.71289L15.2431 13.1358C12.1314 15.0722 8.16023 14.7545 5.38931 12.3795C5.30041 12.3038 5.18185 12.3794 5.21149 12.5005L6.91553 20.5635L0.262374 29.8065C-0.389606 30.7142 0.247551 32 1.35888 32H15.5098C15.821 32 16.1173 31.8941 16.3544 31.6974L24.1041 25.4195L24.0745 30.6083C24.0745 31.3798 24.682 32 25.4229 32H34.0468C34.3876 32 34.6988 31.879 34.9507 31.6521L43.4709 21.6376L43.3523 31.047C43.5301 31.6067 44.0487 32 44.6414 32H60.2445C60.6298 32 61.0002 31.8336 61.2669 31.531C61.7115 31.0167 62.0819 30.4419 62.3486 29.7914L74.9733 0.231952C75.0771 0.0806752 74.8548 -0.0857261 74.7066 0.0504226Z" fill="#EF3E2D"/>
</svg>
