<?xml version="1.0" encoding="utf-8"?>
<!-- Generator: Adobe Illustrator 27.9.1, SVG Export Plug-In . SVG Version: 6.00 Build 0)  -->
<svg version="1.1" id="Layer_1" xmlns="http://www.w3.org/2000/svg" xmlns:xlink="http://www.w3.org/1999/xlink" x="0px" y="0px"
	 viewBox="0 0 562.1 60.7" style="enable-background:new 0 0 562.1 60.7;" xml:space="preserve">
<style type="text/css">
	.st0{fill:#EF3E2D;}
	.st1{fill:#FFFFFF;}
	.st2{fill:#1E2D3A;}
	.st3{fill:#2F3841;}
	.st4{fill:#1B2123;}
	.st5{fill:#44AF7C;}
	.st6{fill:#467CAE;}
	.st7{fill:#FCFAED;}
	.st8{fill:#F4F1EA;}
	.st9{fill:#DFD5C8;}
	.st10{fill:#CBBF9F;}
	.st11{fill:#FFFFFF;stroke:#CFCFCE;stroke-width:0.25;stroke-miterlimit:10;}
</style>
<g>
	<g>
		<g>
			<g>
				<path class="st2" d="M203.8,39c0-2.4,0.5-4.8,1.4-7c0.9-2.2,2.3-4.3,4.1-6.2c1.9-1.9,4-3.4,6.1-4.3c2.2-0.9,4.5-1.4,7.1-1.4
					c2.6,0,5,0.5,7.1,1.4c2.2,0.9,4.2,2.4,6.1,4.3c1.8,1.9,3.2,3.9,4.2,6.2c1,2.2,1.4,4.6,1.4,7c0,2.5-0.5,4.8-1.4,7.1
					c-1,2.3-2.3,4.3-4.2,6.2c-1.9,1.9-3.9,3.4-6.1,4.3c-2.2,0.9-4.6,1.4-7.2,1.4c-2.6,0-5-0.5-7.1-1.4c-2.2-0.9-4.2-2.4-6.1-4.3
					c-1.8-1.9-3.2-3.9-4.1-6.2C204.3,43.8,203.8,41.5,203.8,39z M214.7,39c0,4.7,0.1,7.9,0.2,9.6c0.2,1.8,0.4,3.1,0.8,3.9
					c0.6,1.3,1.4,2.3,2.5,2.9c1.1,0.6,2.5,0.9,4.4,0.9c1.9,0,3.3-0.3,4.4-0.9c1.1-0.6,1.9-1.5,2.5-2.9c0.4-0.9,0.7-2.3,0.9-4.2
					c0.2-1.9,0.2-5,0.2-9.4c0-4.4-0.1-7.5-0.2-9.3c-0.2-1.9-0.5-3.2-0.9-4.2c-0.6-1.3-1.4-2.3-2.5-2.9c-1.1-0.6-2.5-0.9-4.4-0.9
					c-1.8,0-3.3,0.3-4.4,0.9c-1.1,0.6-1.9,1.5-2.5,2.9c-0.4,0.9-0.7,2.2-0.8,3.9C214.8,31.2,214.7,34.4,214.7,39z"/>
				<path class="st3" d="M245.9,55.3h4.3V22.5h-4.3v-1.7h20.3c4.2,0,7.4,0.7,9.6,2c2.2,1.4,3.3,3.3,3.3,5.9c0,2.6-1,4.7-3.1,6.2
					c-2.1,1.5-5.1,2.4-8.9,2.6V38c3.9,0.5,6.7,1.8,8.4,3.7c1.6,1.9,2.5,5,2.5,9.3c0,1.7,0.2,2.9,0.5,3.5c0.3,0.6,1,0.8,1.8,0.8
					c0.3,0,0.7,0,1.1-0.1s0.9-0.2,1.3-0.4l0.6,1.5c-1.2,0.5-2.4,1-3.5,1.3c-1.1,0.3-2.1,0.4-2.9,0.4c-1.5,0-2.9-0.2-4.1-0.7
					c-1.2-0.5-2.2-1.1-2.9-1.9c-1.4-1.6-2.2-4.5-2.3-8.8c0-0.6,0-1-0.1-1.3c-0.1-2.5-0.7-4.3-1.8-5.2c-1.1-1-2.9-1.5-5.4-1.5h-1
					v16.9h4.7v1.8h-18.2V55.3z M259.4,36.7h4.6c2.1,0,3.5-0.4,4.2-1.3c0.7-0.9,1.1-2.7,1.1-5.5c0-3.5-0.3-5.6-0.9-6.3
					c-0.6-0.7-2.1-1.1-4.4-1.1h-4.6V36.7z"/>
				<path class="st3" d="M285.5,57.1v-1.8h2.8c0.7,0,1.2-0.2,1.5-0.5c0.3-0.3,0.4-0.9,0.4-1.9V24.4c0-0.8-0.2-1.3-0.5-1.5
					c-0.3-0.2-1-0.4-1.9-0.4h-2.2v-1.7h14.7l15.3,20.9V25.2c0-1.1-0.2-1.8-0.5-2.2c-0.3-0.3-1.1-0.5-2.2-0.5h-2.3v-1.7h11.6v1.7
					h-2.1c-0.9,0-1.5,0.2-1.9,0.6c-0.3,0.4-0.5,1.1-0.5,2.1V58h-1.5l-18.7-25.7c-1.6-2.2-5.1-1.1-5.1,1.6v19.4
					c0,0.6,0.2,1.1,0.5,1.5c0.4,0.3,0.9,0.5,1.5,0.5h3.2v1.8H285.5z"/>
				<path class="st3" d="M333.7,57.1v-1.8h4.5V39.9l-10.6-17.4H324v-1.7h18.3v1.7h-4.5l8.9,14.8l6.3-11.7c0.3-0.6,0.5-1,0.6-1.3
					c0.1-0.3,0.2-0.5,0.2-0.7c0-0.4-0.2-0.6-0.5-0.8c-0.3-0.2-0.8-0.3-1.4-0.3h-3.1v-1.7h11.7v1.7H359c-1,0-1.8,0.2-2.4,0.7
					c-0.6,0.5-1.4,1.6-2.2,3.2l-6.8,12.7v16.2h4.5v1.8H333.7z"/>
				<path class="st3" d="M462,57.1v-1.8h4.5V22.5H462v-1.7h18.3v1.7h-4.5v32.9h4.5v1.8H462z"/>
				<path class="st3" d="M524.5,39c0-2.4,0.5-4.8,1.4-7c0.9-2.2,2.3-4.3,4.1-6.2c1.9-1.9,4-3.4,6.1-4.3c2.2-0.9,4.5-1.4,7.1-1.4
					c2.6,0,5,0.5,7.1,1.4c2.2,0.9,4.2,2.4,6.1,4.3c1.8,1.9,3.2,3.9,4.2,6.2c1,2.2,1.4,4.6,1.4,7c0,2.5-0.5,4.8-1.4,7.1
					c-1,2.3-2.3,4.3-4.2,6.2c-1.9,1.9-3.9,3.4-6.1,4.3c-2.2,0.9-4.6,1.4-7.2,1.4c-2.6,0-5-0.5-7.1-1.4c-2.2-0.9-4.2-2.4-6.1-4.3
					c-1.8-1.9-3.2-3.9-4.1-6.2C525,43.8,524.5,41.5,524.5,39z M535.4,39c0,4.7,0.1,7.9,0.2,9.6c0.2,1.8,0.4,3.1,0.8,3.9
					c0.6,1.3,1.4,2.3,2.5,2.9c1.1,0.6,2.5,0.9,4.4,0.9c1.9,0,3.3-0.3,4.4-0.9c1.1-0.6,1.9-1.5,2.5-2.9c0.4-0.9,0.7-2.3,0.9-4.2
					c0.2-1.9,0.2-5,0.2-9.4c0-4.4-0.1-7.5-0.2-9.3c-0.2-1.9-0.5-3.2-0.9-4.2c-0.6-1.3-1.4-2.3-2.5-2.9c-1.1-0.6-2.5-0.9-4.4-0.9
					c-1.8,0-3.3,0.3-4.4,0.9c-1.1,0.6-1.9,1.5-2.5,2.9c-0.4,0.9-0.7,2.2-0.8,3.9C535.4,31.2,535.4,34.4,535.4,39z"/>
				<path class="st3" d="M419.3,57.1v-1.8h4.4V22.5h-4.4v-1.6h18v1.6H433v14.9h12.2V22.5h-4.4v-1.6h17.9v1.6h-4.4v32.9h4.4v1.8
					h-17.9v-1.8h4.4V39.5h-6c-3.4,0-6.2,2.8-6.2,6.2v9.7h4.4v1.8H419.3z"/>
				<path class="st3" d="M483.3,57.1v-1.8h2.8c0.7,0,1.2-0.2,1.5-0.5c0.3-0.3,0.4-0.9,0.4-1.9V24.4c0-0.8-0.2-1.3-0.5-1.5
					c-0.3-0.2-1-0.4-1.9-0.4h-2.2v-1.7h14.7l15.3,20.9V25.2c0-1.1-0.2-1.8-0.5-2.2c-0.3-0.3-1.1-0.5-2.2-0.5h-2.3v-1.7h11.6v1.7
					h-2.1c-0.9,0-1.5,0.2-1.9,0.6c-0.3,0.4-0.5,1.1-0.5,2.1V58H514l-18.7-25.7c-1.6-2.2-5.1-1.1-5.1,1.6v19.4c0,0.6,0.2,1.1,0.5,1.5
					c0.4,0.3,0.9,0.5,1.5,0.5h3.2v1.8H483.3z"/>
			</g>
		</g>
	</g>
	<g>
		<g>
			<path class="st3" d="M199.4,22.4v-1.6h-18v1.6h4.4V35v2.3v0.5h-12.2v-0.5V35V22.4h4.4v-1.6h-18v1.6h4.4v32.9H160v1.8h18v-1.8
				h-4.4v-9.6V45c0-2.8,2.3-5.1,5.1-5.1h7.1v5.8v9.6h-4.4v1.8h18v-1.8H195V22.4H199.4z"/>
			<g>
				<g>
					<path class="st3" d="M416.3,55.7c-0.5,0.2-0.9,0.3-1.3,0.4c-0.4,0.1-0.8,0.1-1.1,0.1c-0.9,0-1.5-0.3-1.8-0.8
						c-0.3-0.6-0.5-1.7-0.5-3.5c0-4.2-0.8-6.9-2.5-8.8c-1.6-1.9-4.4-3.2-8.4-3.7v-0.5c3.9-0.2,6.8-1,8.9-2.6
						c2.1-1.5,3.1-4.9,3.1-7.5c0-2.6-1.1-4.5-3.3-5.9c-2.2-1.4-5.4-2.1-9.6-2.1h-6.8h-13.5v1.7h4.3v32.9h-4.3v1.8h18.3v-1.8h-4.8
						V44.1v-4.3h1c2.6,0,4.4,0.5,5.4,1.5c1.1,1,1.7,2.7,1.8,5.2c0,0.3,0,0.7,0.1,1.3c0.1,4.3,0.9,6.8,2.4,8.4
						c0.7,0.8,1.7,1.5,2.9,1.9c1.2,0.5,2.6,0.7,4.1,0.7c0.8,0,1.8-0.1,2.9-0.4c1.1-0.3,2.3-0.7,3.5-1.3L416.3,55.7z M397.5,38h-4.6
						v-1.3V22.5h4.6c2.3,0,3.8,0.4,4.4,1.1c0.6,0.7,0.9,2.8,0.9,6.4c0,2.8-0.4,6-1.1,6.8C401,37.6,399.5,38,397.5,38z"/>
				</g>
			</g>
		</g>
	</g>
	<path class="st0" d="M144.5,0.1l-34.9,31.2l8.5-18.1c0.1-0.3-0.2-0.6-0.5-0.5l-17.5,9.9L83.1,7.2c-5.9-5.3-14.5-6.1-21.3-2
		L29.5,24.9c-6,3.7-13.7,3.1-19.1-1.4c-0.2-0.1-0.4,0-0.4,0.2L13.4,39L0.5,56.5c-1.3,1.7,0,4.2,2.1,4.2H30c0.6,0,1.2-0.2,1.6-0.6
		l15-11.9L46.5,58c0,1.5,1.2,2.6,2.6,2.6h16.7c0.6,0,1.3-0.2,1.8-0.7l16.5-19l-0.2,17.8c0.4,1.1,1.4,1.8,2.5,1.8h30.2
		c0.8,0,1.5-0.3,2-0.9c0.9-1,1.6-2.1,2.1-3.3l24.4-56C145.2,0.1,144.8-0.2,144.5,0.1z"/>
</g>
</svg>
